<mxfile host="app.diagrams.net" agent="Mozilla/5.0 (Windows NT 10.0; Win64; x64) AppleWebKit/537.36 (KHTML, like Gecko) Chrome/137.0.0.0 Safari/537.36" version="27.1.4">
  <diagram id="yPxyJZ8AM_hMuL3Unpa9" name="gitflow">
    <mxGraphModel dx="595" dy="356" grid="1" gridSize="10" guides="1" tooltips="1" connect="1" arrows="1" fold="1" page="1" pageScale="1" pageWidth="850" pageHeight="1100" math="0" shadow="0">
      <root>
        <mxCell id="0" />
        <mxCell id="1" parent="0" />
        <mxCell id="3" value="" style="endArrow=none;dashed=1;html=1;fillColor=#dae8fc;strokeColor=#6c8ebf;exitX=0.5;exitY=0;exitDx=0;exitDy=0;endFill=0;startArrow=openThin;startFill=0;" parent="1" source="4" target="7" edge="1">
          <mxGeometry width="50" height="50" relative="1" as="geometry">
            <mxPoint x="141.80327868854624" y="160.16393442611184" as="sourcePoint" />
            <mxPoint x="720" y="70" as="targetPoint" />
          </mxGeometry>
        </mxCell>
        <mxCell id="4" value="" style="ellipse;whiteSpace=wrap;html=1;aspect=fixed;fillColor=#dae8fc;strokeColor=#6c8ebf;fontStyle=1;labelPosition=right;verticalLabelPosition=top;align=center;verticalAlign=bottom;fontColor=#0066CC;" parent="1" vertex="1">
          <mxGeometry x="159.98999999999998" y="260" width="20" height="20" as="geometry" />
        </mxCell>
        <mxCell id="7" value="Master" style="text;html=1;strokeColor=#6c8ebf;fillColor=#dae8fc;align=center;verticalAlign=middle;whiteSpace=wrap;rounded=0;" parent="1" vertex="1">
          <mxGeometry x="119.97" width="100.03" height="20" as="geometry" />
        </mxCell>
        <mxCell id="9" value="" style="ellipse;whiteSpace=wrap;html=1;aspect=fixed;fillColor=#f8cecc;strokeColor=#b85450;" parent="1" vertex="1">
          <mxGeometry x="280" y="260" width="20" height="20" as="geometry" />
        </mxCell>
        <mxCell id="TqjULr7ZvnBJGrtV8sEN-186" value="" style="endArrow=openThin;dashed=1;html=1;fillColor=#dae8fc;strokeColor=#f8cecc;exitX=0.5;exitY=1;exitDx=0;exitDy=0;endFill=0;" parent="1" source="20" target="9" edge="1">
          <mxGeometry relative="1" as="geometry" />
        </mxCell>
        <mxCell id="20" value="Carrent" style="text;html=1;strokeColor=#b85450;fillColor=#f8cecc;align=center;verticalAlign=middle;whiteSpace=wrap;rounded=0;" parent="1" vertex="1">
          <mxGeometry x="240" width="100" height="20" as="geometry" />
        </mxCell>
        <mxCell id="23" style="edgeStyle=orthogonalEdgeStyle;rounded=1;orthogonalLoop=1;jettySize=auto;html=1;dashed=1;endArrow=none;endFill=0;fillColor=#d5e8d4;strokeColor=#82b366;startFill=0;startArrow=openThin;" parent="1" target="24" edge="1">
          <mxGeometry relative="1" as="geometry">
            <mxPoint x="700" y="180" as="targetPoint" />
            <mxPoint x="660" y="60" as="sourcePoint" />
          </mxGeometry>
        </mxCell>
        <mxCell id="24" value="server_and_database" style="text;html=1;strokeColor=#82b366;fillColor=#d5e8d4;align=center;verticalAlign=middle;whiteSpace=wrap;rounded=0;" parent="1" vertex="1">
          <mxGeometry x="600" width="120" height="20" as="geometry" />
        </mxCell>
        <mxCell id="39" value="" style="ellipse;whiteSpace=wrap;html=1;aspect=fixed;fontSize=10;labelPosition=right;verticalLabelPosition=top;align=centrt;verticalAlign=bottom;fillColor=#ffe6cc;strokeColor=#d79b00;fontColor=#FFB570;" parent="1" vertex="1">
          <mxGeometry x="399.49999999999994" y="60" width="20" height="20" as="geometry" />
        </mxCell>
        <mxCell id="TqjULr7ZvnBJGrtV8sEN-187" style="endArrow=openThin;dashed=1;html=1;fillColor=#dae8fc;strokeColor=#d79b00;exitX=0.5;exitY=1;exitDx=0;exitDy=0;endFill=0;" parent="1" source="42" target="39" edge="1">
          <mxGeometry relative="1" as="geometry" />
        </mxCell>
        <mxCell id="42" value="Client_Window" style="text;html=1;strokeColor=#d79b00;fillColor=#ffe6cc;align=center;verticalAlign=middle;whiteSpace=wrap;rounded=0;fontSize=12;" parent="1" vertex="1">
          <mxGeometry x="360" width="99" height="20" as="geometry" />
        </mxCell>
        <mxCell id="85" value="server_for_many_client" style="text;html=1;strokeColor=#82b366;fillColor=#d5e8d4;align=center;verticalAlign=middle;whiteSpace=wrap;rounded=0;" parent="1" vertex="1">
          <mxGeometry x="740" width="140" height="20" as="geometry" />
        </mxCell>
        <mxCell id="102" value="documents" style="text;html=1;strokeColor=#666666;fillColor=#f5f5f5;align=center;verticalAlign=middle;whiteSpace=wrap;rounded=0;fontColor=#333333;" parent="1" vertex="1">
          <mxGeometry width="100" height="21" as="geometry" />
        </mxCell>
        <mxCell id="125" value="ConsoleClient" style="text;html=1;strokeColor=#d79b00;fillColor=#ffe6cc;align=center;verticalAlign=middle;whiteSpace=wrap;rounded=0;fontSize=12;" parent="1" vertex="1">
          <mxGeometry x="480.5" width="99" height="20" as="geometry" />
        </mxCell>
        <mxCell id="175" style="edgeStyle=orthogonalEdgeStyle;rounded=1;orthogonalLoop=1;jettySize=auto;html=1;dashed=1;endArrow=none;endFill=0;startArrow=openThin;startFill=0;" parent="1" source="173" target="102" edge="1">
          <mxGeometry relative="1" as="geometry" />
        </mxCell>
        <mxCell id="173" value="" style="ellipse;whiteSpace=wrap;html=1;aspect=fixed;fontSize=10;fontColor=#333333;fillColor=#f5f5f5;strokeColor=#666666;" parent="1" vertex="1">
          <mxGeometry x="40" y="260" width="20" height="20" as="geometry" />
        </mxCell>
        <mxCell id="TqjULr7ZvnBJGrtV8sEN-190" value="" style="ellipse;whiteSpace=wrap;html=1;aspect=fixed;fontSize=10;labelPosition=right;verticalLabelPosition=top;align=center;verticalAlign=bottom;fillColor=#ffe6cc;strokeColor=#d79b00;fontColor=#FFB570;" parent="1" vertex="1">
          <mxGeometry x="520" y="120" width="20" height="20" as="geometry" />
        </mxCell>
        <mxCell id="TqjULr7ZvnBJGrtV8sEN-191" style="endArrow=openThin;dashed=1;html=1;fillColor=#dae8fc;strokeColor=#d79b00;exitX=0.5;exitY=1;exitDx=0;exitDy=0;endFill=0;" parent="1" source="125" target="TqjULr7ZvnBJGrtV8sEN-190" edge="1">
          <mxGeometry relative="1" as="geometry">
            <mxPoint x="530" y="30" as="sourcePoint" />
          </mxGeometry>
        </mxCell>
        <mxCell id="TqjULr7ZvnBJGrtV8sEN-192" style="edgeStyle=orthogonalEdgeStyle;rounded=1;orthogonalLoop=1;jettySize=auto;html=1;dashed=1;endArrow=none;endFill=0;fillColor=#d5e8d4;strokeColor=#82b366;entryX=0.5;entryY=1;entryDx=0;entryDy=0;exitX=0.5;exitY=0;exitDx=0;exitDy=0;startArrow=classicThin;startFill=0;" parent="1" source="TqjULr7ZvnBJGrtV8sEN-196" target="85" edge="1">
          <mxGeometry relative="1" as="geometry">
            <mxPoint x="810" y="20" as="targetPoint" />
            <mxPoint x="810" y="60" as="sourcePoint" />
          </mxGeometry>
        </mxCell>
        <mxCell id="TqjULr7ZvnBJGrtV8sEN-194" value="" style="ellipse;whiteSpace=wrap;html=1;aspect=fixed;fontSize=10;labelPosition=right;verticalLabelPosition=top;align=center;verticalAlign=bottom;fillColor=#d5e8d4;strokeColor=#82b366;fontColor=#82b366;" parent="1" vertex="1">
          <mxGeometry x="650" y="60" width="20" height="20" as="geometry" />
        </mxCell>
        <mxCell id="TqjULr7ZvnBJGrtV8sEN-196" value="" style="ellipse;whiteSpace=wrap;html=1;aspect=fixed;fontSize=10;labelPosition=right;verticalLabelPosition=top;align=center;verticalAlign=bottom;fillColor=#d5e8d4;strokeColor=#82b366;fontColor=#82b366;" parent="1" vertex="1">
          <mxGeometry x="800" y="180" width="20" height="20" as="geometry" />
        </mxCell>
        <mxCell id="TqjULr7ZvnBJGrtV8sEN-198" value="&lt;font style=&quot;font-size: 10px;&quot;&gt;синглтон&lt;br&gt;&lt;/font&gt;" style="shape=display;whiteSpace=wrap;html=1;rotation=-25;size=0.18278688524590314;" parent="1" vertex="1">
          <mxGeometry x="669.27" y="49.72" width="61" height="14" as="geometry" />
        </mxCell>
        <mxCell id="TqjULr7ZvnBJGrtV8sEN-199" value="&lt;font style=&quot;font-size: 10px;&quot;&gt;1.0&lt;br&gt;&lt;/font&gt;" style="shape=display;whiteSpace=wrap;html=1;rotation=-25;size=0.18278688524590314;" parent="1" vertex="1">
          <mxGeometry x="416" y="45" width="61" height="14" as="geometry" />
        </mxCell>
        <mxCell id="TqjULr7ZvnBJGrtV8sEN-204" value="" style="ellipse;whiteSpace=wrap;html=1;aspect=fixed;fontSize=10;labelPosition=right;verticalLabelPosition=top;align=centrt;verticalAlign=bottom;fillColor=#ffe6cc;strokeColor=#d79b00;fontColor=#FFB570;" parent="1" vertex="1">
          <mxGeometry x="399.49999999999994" y="120" width="20" height="20" as="geometry" />
        </mxCell>
        <mxCell id="TqjULr7ZvnBJGrtV8sEN-205" style="endArrow=openThin;dashed=1;html=1;fillColor=#dae8fc;strokeColor=#d79b00;exitX=0.5;exitY=1;exitDx=0;exitDy=0;endFill=0;" parent="1" target="TqjULr7ZvnBJGrtV8sEN-204" edge="1">
          <mxGeometry relative="1" as="geometry">
            <mxPoint x="410" y="80" as="sourcePoint" />
          </mxGeometry>
        </mxCell>
        <mxCell id="TqjULr7ZvnBJGrtV8sEN-206" value="" style="ellipse;whiteSpace=wrap;html=1;aspect=fixed;fontSize=10;labelPosition=right;verticalLabelPosition=top;align=centrt;verticalAlign=bottom;fillColor=#ffe6cc;strokeColor=#d79b00;fontColor=#FFB570;" parent="1" vertex="1">
          <mxGeometry x="400.49999999999994" y="180" width="20" height="20" as="geometry" />
        </mxCell>
        <mxCell id="TqjULr7ZvnBJGrtV8sEN-207" style="endArrow=openThin;dashed=1;html=1;fillColor=#dae8fc;strokeColor=#d79b00;exitX=0.5;exitY=1;exitDx=0;exitDy=0;edgeStyle=orthogonalEdgeStyle;endFill=0;" parent="1" target="TqjULr7ZvnBJGrtV8sEN-206" edge="1">
          <mxGeometry relative="1" as="geometry">
            <mxPoint x="410" y="140" as="sourcePoint" />
          </mxGeometry>
        </mxCell>
        <mxCell id="TqjULr7ZvnBJGrtV8sEN-208" value="&lt;font style=&quot;font-size: 10px;&quot;&gt;2.0&lt;br&gt;&lt;/font&gt;" style="shape=display;whiteSpace=wrap;html=1;rotation=-25;size=0.18278688524590314;" parent="1" vertex="1">
          <mxGeometry x="416" y="106" width="61" height="14" as="geometry" />
        </mxCell>
        <mxCell id="TqjULr7ZvnBJGrtV8sEN-209" value="&lt;font style=&quot;font-size: 10px;&quot;&gt;3.0&lt;br&gt;&lt;/font&gt;" style="shape=display;whiteSpace=wrap;html=1;rotation=-25;size=0.18278688524590314;" parent="1" vertex="1">
          <mxGeometry x="416" y="166" width="61" height="14" as="geometry" />
        </mxCell>
        <mxCell id="TqjULr7ZvnBJGrtV8sEN-211" style="edgeStyle=orthogonalEdgeStyle;rounded=1;orthogonalLoop=1;jettySize=auto;html=1;dashed=1;endArrow=none;endFill=0;fillColor=#d5e8d4;strokeColor=#82b366;startFill=0;startArrow=openThin;" parent="1" edge="1">
          <mxGeometry relative="1" as="geometry">
            <mxPoint x="660" y="80" as="targetPoint" />
            <mxPoint x="660" y="120" as="sourcePoint" />
          </mxGeometry>
        </mxCell>
        <mxCell id="TqjULr7ZvnBJGrtV8sEN-212" value="" style="ellipse;whiteSpace=wrap;html=1;aspect=fixed;fontSize=10;labelPosition=right;verticalLabelPosition=top;align=center;verticalAlign=bottom;fillColor=#d5e8d4;strokeColor=#82b366;fontColor=#82b366;" parent="1" vertex="1">
          <mxGeometry x="650" y="120" width="20" height="20" as="geometry" />
        </mxCell>
        <mxCell id="TqjULr7ZvnBJGrtV8sEN-213" value="&lt;font style=&quot;font-size: 10px;&quot;&gt;БД&lt;/font&gt;" style="shape=display;whiteSpace=wrap;html=1;rotation=-25;size=0.18278688524590314;" parent="1" vertex="1">
          <mxGeometry x="669.27" y="109.72" width="61" height="14" as="geometry" />
        </mxCell>
        <mxCell id="TqjULr7ZvnBJGrtV8sEN-214" style="edgeStyle=orthogonalEdgeStyle;rounded=1;orthogonalLoop=1;jettySize=auto;html=1;dashed=1;endArrow=none;endFill=0;fillColor=#d5e8d4;strokeColor=#82b366;entryX=1;entryY=0.5;entryDx=0;entryDy=0;exitX=0;exitY=0;exitDx=0;exitDy=0;startArrow=classicThin;startFill=0;" parent="1" source="TqjULr7ZvnBJGrtV8sEN-196" target="TqjULr7ZvnBJGrtV8sEN-194" edge="1">
          <mxGeometry relative="1" as="geometry">
            <mxPoint x="820" y="30" as="targetPoint" />
            <mxPoint x="820" y="190" as="sourcePoint" />
          </mxGeometry>
        </mxCell>
        <mxCell id="TqjULr7ZvnBJGrtV8sEN-215" value="&lt;font style=&quot;font-size: 10px;&quot;&gt;несколько клиентов&lt;/font&gt;" style="shape=display;whiteSpace=wrap;html=1;rotation=-25;size=0.18278688524590314;" parent="1" vertex="1">
          <mxGeometry x="816.44" y="158.46" width="73" height="22.84" as="geometry" />
        </mxCell>
        <mxCell id="TqjULr7ZvnBJGrtV8sEN-220" style="endArrow=openThin;dashed=1;html=1;fillColor=#dae8fc;strokeColor=#d79b00;exitX=0;exitY=0.5;exitDx=0;exitDy=0;edgeStyle=orthogonalEdgeStyle;entryX=1;entryY=0.5;entryDx=0;entryDy=0;endFill=0;" parent="1" source="TqjULr7ZvnBJGrtV8sEN-206" target="9" edge="1">
          <mxGeometry relative="1" as="geometry">
            <mxPoint x="420" y="150" as="sourcePoint" />
            <mxPoint x="420" y="190" as="targetPoint" />
          </mxGeometry>
        </mxCell>
        <mxCell id="TqjULr7ZvnBJGrtV8sEN-223" style="edgeStyle=orthogonalEdgeStyle;rounded=1;orthogonalLoop=1;jettySize=auto;html=1;dashed=1;endArrow=openThin;endFill=0;fillColor=#d5e8d4;strokeColor=#82b366;entryX=1;entryY=0.5;entryDx=0;entryDy=0;exitX=0;exitY=1;exitDx=0;exitDy=0;" parent="1" source="TqjULr7ZvnBJGrtV8sEN-196" target="9" edge="1">
          <mxGeometry relative="1" as="geometry">
            <mxPoint x="680" y="80" as="targetPoint" />
            <mxPoint x="810" y="200" as="sourcePoint" />
            <Array as="points">
              <mxPoint x="736" y="197" />
              <mxPoint x="736" y="270" />
            </Array>
          </mxGeometry>
        </mxCell>
        <mxCell id="TqjULr7ZvnBJGrtV8sEN-225" style="edgeStyle=orthogonalEdgeStyle;rounded=1;orthogonalLoop=1;jettySize=auto;html=1;dashed=1;endArrow=openThin;endFill=0;fillColor=#d5e8d4;strokeColor=#82b366;entryX=1;entryY=0.5;entryDx=0;entryDy=0;exitX=0;exitY=0.5;exitDx=0;exitDy=0;" parent="1" source="TqjULr7ZvnBJGrtV8sEN-212" target="9" edge="1">
          <mxGeometry relative="1" as="geometry">
            <mxPoint x="310" y="280" as="targetPoint" />
            <mxPoint x="820" y="210" as="sourcePoint" />
            <Array as="points">
              <mxPoint x="630" y="130" />
              <mxPoint x="630" y="270" />
            </Array>
          </mxGeometry>
        </mxCell>
        <mxCell id="TqjULr7ZvnBJGrtV8sEN-228" value="" style="endArrow=openThin;dashed=1;html=1;fillColor=#dae8fc;strokeColor=#f8cecc;exitX=0;exitY=0.5;exitDx=0;exitDy=0;entryX=1;entryY=0.5;entryDx=0;entryDy=0;endFill=0;" parent="1" source="9" target="4" edge="1">
          <mxGeometry relative="1" as="geometry">
            <mxPoint x="300" y="30" as="sourcePoint" />
            <mxPoint x="300" y="270" as="targetPoint" />
          </mxGeometry>
        </mxCell>
        <mxCell id="TqjULr7ZvnBJGrtV8sEN-230" value="&lt;font style=&quot;font-size: 10px;&quot;&gt;готовые диаграммы&lt;br&gt;&lt;/font&gt;" style="shape=display;whiteSpace=wrap;html=1;rotation=-25;size=0.18278688524590314;" parent="1" vertex="1">
          <mxGeometry x="54.56" y="234.01" width="113" height="14" as="geometry" />
        </mxCell>
        <mxCell id="TqjULr7ZvnBJGrtV8sEN-231" style="edgeStyle=orthogonalEdgeStyle;rounded=1;orthogonalLoop=1;jettySize=auto;html=1;dashed=1;endArrow=none;endFill=0;fillColor=#d5e8d4;strokeColor=#82b366;entryX=0;entryY=0.5;entryDx=0;entryDy=0;exitX=1;exitY=0.5;exitDx=0;exitDy=0;startArrow=openThin;startFill=0;" parent="1" source="TqjULr7ZvnBJGrtV8sEN-190" target="TqjULr7ZvnBJGrtV8sEN-194" edge="1">
          <mxGeometry relative="1" as="geometry">
            <mxPoint x="680" y="80" as="targetPoint" />
            <mxPoint x="810" y="200" as="sourcePoint" />
          </mxGeometry>
        </mxCell>
        <mxCell id="TqjULr7ZvnBJGrtV8sEN-232" style="endArrow=openThin;dashed=1;html=1;fillColor=#dae8fc;strokeColor=#d79b00;entryX=1;entryY=0.5;entryDx=0;entryDy=0;exitX=0;exitY=0.5;exitDx=0;exitDy=0;endFill=0;" parent="1" source="TqjULr7ZvnBJGrtV8sEN-190" target="TqjULr7ZvnBJGrtV8sEN-204" edge="1">
          <mxGeometry relative="1" as="geometry">
            <mxPoint x="510" y="150" as="sourcePoint" />
            <mxPoint x="540" y="130" as="targetPoint" />
          </mxGeometry>
        </mxCell>
        <mxCell id="kZS4krdnfFgN9oi1HAYl-175" value="" style="ellipse;whiteSpace=wrap;html=1;aspect=fixed;fontSize=10;labelPosition=right;verticalLabelPosition=top;align=centrt;verticalAlign=bottom;fillColor=#ffe6cc;strokeColor=#d79b00;fontColor=#FFB570;" vertex="1" parent="1">
          <mxGeometry x="400.49999999999994" y="240" width="20" height="20" as="geometry" />
        </mxCell>
        <mxCell id="kZS4krdnfFgN9oi1HAYl-177" style="endArrow=openThin;dashed=1;html=1;fillColor=#dae8fc;strokeColor=#d79b00;exitX=0.5;exitY=1;exitDx=0;exitDy=0;edgeStyle=orthogonalEdgeStyle;entryX=0.5;entryY=0;entryDx=0;entryDy=0;endFill=0;" edge="1" parent="1" source="TqjULr7ZvnBJGrtV8sEN-206" target="kZS4krdnfFgN9oi1HAYl-175">
          <mxGeometry relative="1" as="geometry">
            <mxPoint x="410" y="210" as="sourcePoint" />
            <mxPoint x="411" y="240" as="targetPoint" />
          </mxGeometry>
        </mxCell>
        <mxCell id="kZS4krdnfFgN9oi1HAYl-178" value="&lt;font style=&quot;font-size: 10px;&quot;&gt;4.0&lt;br&gt;&lt;/font&gt;" style="shape=display;whiteSpace=wrap;html=1;rotation=-25;size=0.18278688524590314;" vertex="1" parent="1">
          <mxGeometry x="417.00071533680267" y="224.0040114923479" width="61" height="14" as="geometry" />
        </mxCell>
        <mxCell id="kZS4krdnfFgN9oi1HAYl-179" value="" style="ellipse;whiteSpace=wrap;html=1;aspect=fixed;fontSize=10;labelPosition=right;verticalLabelPosition=top;align=centrt;verticalAlign=bottom;fillColor=#ffe6cc;strokeColor=#d79b00;fontColor=#FFB570;" vertex="1" parent="1">
          <mxGeometry x="400.5" y="298" width="20" height="20" as="geometry" />
        </mxCell>
        <mxCell id="kZS4krdnfFgN9oi1HAYl-180" style="endArrow=openThin;dashed=1;html=1;fillColor=#dae8fc;strokeColor=#d79b00;exitX=0.5;exitY=1;exitDx=0;exitDy=0;edgeStyle=orthogonalEdgeStyle;entryX=0.5;entryY=0;entryDx=0;entryDy=0;endFill=0;" edge="1" parent="1" target="kZS4krdnfFgN9oi1HAYl-179">
          <mxGeometry relative="1" as="geometry">
            <mxPoint x="410.00000000000006" y="260" as="sourcePoint" />
            <mxPoint x="410.00000000000006" y="300" as="targetPoint" />
          </mxGeometry>
        </mxCell>
        <mxCell id="kZS4krdnfFgN9oi1HAYl-181" value="&lt;font style=&quot;font-size: 10px;&quot;&gt;5.0&lt;br&gt;&lt;/font&gt;" style="shape=display;whiteSpace=wrap;html=1;rotation=-25;size=0.18278688524590314;" vertex="1" parent="1">
          <mxGeometry x="418.0007153368027" y="284.0040114923479" width="61" height="14" as="geometry" />
        </mxCell>
        <mxCell id="kZS4krdnfFgN9oi1HAYl-187" style="edgeStyle=orthogonalEdgeStyle;rounded=1;orthogonalLoop=1;jettySize=auto;html=1;dashed=1;endArrow=none;endFill=0;fillColor=#d5e8d4;strokeColor=#82b366;startFill=0;startArrow=openThin;" edge="1" parent="1">
          <mxGeometry relative="1" as="geometry">
            <mxPoint x="660" y="139.88" as="targetPoint" />
            <mxPoint x="660" y="179.88" as="sourcePoint" />
          </mxGeometry>
        </mxCell>
        <mxCell id="kZS4krdnfFgN9oi1HAYl-188" value="" style="ellipse;whiteSpace=wrap;html=1;aspect=fixed;fontSize=10;labelPosition=right;verticalLabelPosition=top;align=center;verticalAlign=bottom;fillColor=#d5e8d4;strokeColor=#82b366;fontColor=#82b366;" vertex="1" parent="1">
          <mxGeometry x="650" y="179.88" width="20" height="20" as="geometry" />
        </mxCell>
        <mxCell id="kZS4krdnfFgN9oi1HAYl-189" value="&lt;font style=&quot;font-size: 10px;&quot;&gt;2.0&lt;/font&gt;" style="shape=display;whiteSpace=wrap;html=1;rotation=-25;size=0.18278688524590314;" vertex="1" parent="1">
          <mxGeometry x="669.27" y="169.6" width="61" height="14" as="geometry" />
        </mxCell>
        <mxCell id="kZS4krdnfFgN9oi1HAYl-190" style="edgeStyle=orthogonalEdgeStyle;rounded=1;orthogonalLoop=1;jettySize=auto;html=1;dashed=1;endArrow=none;endFill=0;fillColor=#d5e8d4;strokeColor=#82b366;startFill=0;startArrow=openThin;" edge="1" parent="1">
          <mxGeometry relative="1" as="geometry">
            <mxPoint x="660" y="199.88" as="targetPoint" />
            <mxPoint x="660" y="239.88" as="sourcePoint" />
          </mxGeometry>
        </mxCell>
        <mxCell id="kZS4krdnfFgN9oi1HAYl-191" value="" style="ellipse;whiteSpace=wrap;html=1;aspect=fixed;fontSize=10;labelPosition=right;verticalLabelPosition=top;align=center;verticalAlign=bottom;fillColor=#d5e8d4;strokeColor=#82b366;fontColor=#82b366;" vertex="1" parent="1">
          <mxGeometry x="650" y="239.88" width="20" height="20" as="geometry" />
        </mxCell>
        <mxCell id="kZS4krdnfFgN9oi1HAYl-192" value="&lt;font style=&quot;font-size: 10px;&quot;&gt;3.0&lt;/font&gt;" style="shape=display;whiteSpace=wrap;html=1;rotation=-25;size=0.18278688524590314;" vertex="1" parent="1">
          <mxGeometry x="669.27" y="229.6" width="61" height="14" as="geometry" />
        </mxCell>
        <mxCell id="kZS4krdnfFgN9oi1HAYl-193" value="" style="ellipse;whiteSpace=wrap;html=1;aspect=fixed;fillColor=#f8cecc;strokeColor=#b85450;" vertex="1" parent="1">
          <mxGeometry x="280" y="340" width="20" height="20" as="geometry" />
        </mxCell>
        <mxCell id="kZS4krdnfFgN9oi1HAYl-194" value="" style="endArrow=openThin;dashed=1;html=1;fillColor=#dae8fc;strokeColor=#f8cecc;endFill=0;" edge="1" parent="1" target="kZS4krdnfFgN9oi1HAYl-193">
          <mxGeometry relative="1" as="geometry">
            <mxPoint x="290" y="280" as="sourcePoint" />
          </mxGeometry>
        </mxCell>
        <mxCell id="kZS4krdnfFgN9oi1HAYl-196" value="" style="endArrow=none;dashed=1;html=1;fillColor=#dae8fc;strokeColor=#6c8ebf;exitX=0.5;exitY=0;exitDx=0;exitDy=0;endFill=0;startArrow=openThin;startFill=0;" edge="1" parent="1" source="kZS4krdnfFgN9oi1HAYl-197">
          <mxGeometry width="50" height="50" relative="1" as="geometry">
            <mxPoint x="141.80327868854627" y="240.16393442611184" as="sourcePoint" />
            <mxPoint x="169.99" y="280" as="targetPoint" />
          </mxGeometry>
        </mxCell>
        <mxCell id="kZS4krdnfFgN9oi1HAYl-197" value="" style="ellipse;whiteSpace=wrap;html=1;aspect=fixed;fillColor=#dae8fc;strokeColor=#6c8ebf;fontStyle=1;labelPosition=right;verticalLabelPosition=top;align=center;verticalAlign=bottom;fontColor=#0066CC;" vertex="1" parent="1">
          <mxGeometry x="159.99" y="340" width="20" height="20" as="geometry" />
        </mxCell>
        <mxCell id="kZS4krdnfFgN9oi1HAYl-199" style="edgeStyle=orthogonalEdgeStyle;rounded=1;orthogonalLoop=1;jettySize=auto;html=1;dashed=1;endArrow=openThin;endFill=0;fillColor=#d5e8d4;strokeColor=#82b366;exitX=0.5;exitY=1;exitDx=0;exitDy=0;" edge="1" parent="1" source="kZS4krdnfFgN9oi1HAYl-191">
          <mxGeometry relative="1" as="geometry">
            <mxPoint x="300" y="350" as="targetPoint" />
            <mxPoint x="590" y="390" as="sourcePoint" />
            <Array as="points">
              <mxPoint x="660" y="350" />
            </Array>
          </mxGeometry>
        </mxCell>
        <mxCell id="kZS4krdnfFgN9oi1HAYl-200" style="endArrow=openThin;dashed=1;html=1;fillColor=#dae8fc;strokeColor=#d79b00;exitX=0.5;exitY=1;exitDx=0;exitDy=0;edgeStyle=orthogonalEdgeStyle;entryX=1;entryY=0.5;entryDx=0;entryDy=0;endFill=0;" edge="1" parent="1" source="kZS4krdnfFgN9oi1HAYl-179" target="kZS4krdnfFgN9oi1HAYl-193">
          <mxGeometry relative="1" as="geometry">
            <mxPoint x="410" y="210" as="sourcePoint" />
            <mxPoint x="410" y="250" as="targetPoint" />
          </mxGeometry>
        </mxCell>
        <mxCell id="kZS4krdnfFgN9oi1HAYl-201" value="" style="endArrow=openThin;dashed=1;html=1;fillColor=#dae8fc;strokeColor=#f8cecc;exitX=0;exitY=0.5;exitDx=0;exitDy=0;entryX=1;entryY=0.5;entryDx=0;entryDy=0;endFill=0;" edge="1" parent="1">
          <mxGeometry relative="1" as="geometry">
            <mxPoint x="279.99" y="349.65999999999997" as="sourcePoint" />
            <mxPoint x="179.99" y="349.65999999999997" as="targetPoint" />
          </mxGeometry>
        </mxCell>
      </root>
    </mxGraphModel>
  </diagram>
</mxfile>
